<svg width="690" height="186" viewBox="0 0 690 186" fill="none" xmlns="http://www.w3.org/2000/svg">
<path d="M90 6.66363L108.298 64.82L108.739 66.2197H110.206H169.597L121.494 102.31L120.362 103.16L120.787 104.51L139.126 162.797L91.2003 126.84L90 125.939L88.7997 126.84L40.8737 162.797L59.2134 104.51L59.6383 103.16L58.5059 102.31L10.4032 66.2197H69.7937H71.2611L71.7015 64.82L90 6.66363Z" fill="white" stroke="#A8A8A8" stroke-width="4"/>
<path d="M124.087 81.1558V90.5791L126.252 113.016L113.695 126.029L93.3443 119.914L100.705 113.016L102.004 113.419L101.571 93.7202L101.138 112.567L93.3443 118.4L83.8183 112.567L82.9523 91.9253V112.567L76.4573 115.708L69.0963 109.874L68.6633 93.2715V109.874L66.0653 111.669H61.3023L55.6733 105.836V79.3608L64.3333 71.7324H112.829L124.087 81.1558Z" fill="#EAEAEA"/>
<path d="M109.365 115.708L117.592 113.016V87.8867L116.726 113.016L109.365 115.708ZM109.365 115.708L102.004 113.419M102.004 113.419L100.705 113.016L93.3443 119.914L113.695 126.029L126.252 113.016L124.087 90.5791V81.1558L112.829 71.7324H64.3333L55.6733 79.3608V105.836L61.3023 111.669H66.0653L68.6633 109.874V93.2715L69.0963 109.874L76.4573 115.708L82.9523 112.567V91.9253L83.8183 112.567L93.3443 118.4L101.138 112.567L101.571 93.7202L102.004 113.419Z" stroke="url(#paint0_radial)" stroke-width="3"/>
<path d="M194.29 122.392H186.98V136H184.256V120.15H194.29V122.392ZM210.037 128.251C210.037 130.663 209.485 132.606 208.382 134.081C207.278 135.556 205.784 136.293 203.899 136.293C201.976 136.293 200.462 135.683 199.358 134.462V142.094H196.648V120.15H199.124L199.256 121.908C200.359 120.541 201.893 119.857 203.855 119.857C205.76 119.857 207.264 120.575 208.367 122.011C209.48 123.446 210.037 125.443 210.037 128.002V128.251ZM207.327 127.943C207.327 126.156 206.946 124.745 206.185 123.71C205.423 122.675 204.378 122.157 203.05 122.157C201.409 122.157 200.179 122.885 199.358 124.34V131.913C200.169 133.358 201.409 134.081 203.079 134.081C204.378 134.081 205.408 133.568 206.17 132.543C206.941 131.508 207.327 129.975 207.327 127.943ZM218.504 132.03L222.195 120.15H225.096L218.724 138.446C217.737 141.083 216.17 142.401 214.021 142.401L213.509 142.357L212.498 142.167V139.97L213.23 140.028C214.148 140.028 214.861 139.843 215.369 139.472C215.887 139.101 216.312 138.422 216.644 137.436L217.244 135.824L211.59 120.15H214.549L218.504 132.03ZM240.491 136H237.781V122.392H230.486V136H227.762V120.15H240.491V136ZM257.806 136H255.096V122.392H247.801V136H245.076V120.15H257.806V136ZM271.941 136C271.785 135.688 271.658 135.131 271.561 134.33C270.301 135.639 268.797 136.293 267.049 136.293C265.486 136.293 264.202 135.854 263.196 134.975C262.2 134.086 261.702 132.963 261.702 131.605C261.702 129.955 262.327 128.676 263.577 127.768C264.837 126.85 266.604 126.391 268.88 126.391H271.517V125.146C271.517 124.198 271.233 123.446 270.667 122.89C270.101 122.323 269.266 122.04 268.162 122.04C267.195 122.04 266.385 122.284 265.73 122.772C265.076 123.261 264.749 123.852 264.749 124.545H262.024C262.024 123.754 262.303 122.992 262.859 122.26C263.426 121.518 264.188 120.932 265.145 120.502C266.111 120.072 267.171 119.857 268.323 119.857C270.149 119.857 271.58 120.316 272.615 121.234C273.65 122.143 274.188 123.397 274.227 124.999V132.294C274.227 133.749 274.412 134.906 274.783 135.766V136H271.941ZM267.444 133.935C268.294 133.935 269.1 133.715 269.861 133.275C270.623 132.836 271.175 132.265 271.517 131.562V128.31H269.393C266.072 128.31 264.412 129.281 264.412 131.225C264.412 132.074 264.695 132.738 265.262 133.217C265.828 133.695 266.556 133.935 267.444 133.935ZM298.88 136H296.17V122.392H288.875V136H286.15V120.15H298.88V136ZM316.619 128.251C316.619 130.663 316.067 132.606 314.964 134.081C313.86 135.556 312.366 136.293 310.481 136.293C308.558 136.293 307.044 135.683 305.94 134.462V142.094H303.23V120.15H305.706L305.838 121.908C306.941 120.541 308.475 119.857 310.438 119.857C312.342 119.857 313.846 120.575 314.949 122.011C316.062 123.446 316.619 125.443 316.619 128.002V128.251ZM313.909 127.943C313.909 126.156 313.528 124.745 312.767 123.71C312.005 122.675 310.96 122.157 309.632 122.157C307.991 122.157 306.761 122.885 305.94 124.34V131.913C306.751 133.358 307.991 134.081 309.661 134.081C310.96 134.081 311.99 133.568 312.752 132.543C313.523 131.508 313.909 129.975 313.909 127.943ZM326.653 136.293C324.505 136.293 322.757 135.59 321.409 134.184C320.062 132.768 319.388 130.878 319.388 128.515V128.017C319.388 126.444 319.686 125.043 320.281 123.812C320.887 122.572 321.727 121.605 322.801 120.912C323.885 120.209 325.057 119.857 326.316 119.857C328.377 119.857 329.979 120.536 331.121 121.894C332.264 123.251 332.835 125.194 332.835 127.724V128.852H322.098C322.137 130.414 322.591 131.679 323.46 132.646C324.339 133.603 325.452 134.081 326.8 134.081C327.757 134.081 328.567 133.886 329.231 133.495C329.896 133.104 330.477 132.587 330.975 131.942L332.63 133.231C331.302 135.272 329.31 136.293 326.653 136.293ZM326.316 122.084C325.223 122.084 324.305 122.484 323.562 123.285C322.82 124.076 322.361 125.189 322.186 126.625H330.125V126.42C330.047 125.043 329.676 123.979 329.012 123.227C328.348 122.465 327.449 122.084 326.316 122.084ZM335.853 133.788L336.79 132.631C337.845 131.264 338.445 129.213 338.592 126.479L338.841 120.15H349.051V133.788H351.087V140.658H348.377V136H337.317V140.658H334.607L334.622 133.788H335.853ZM339.061 133.788H346.341V122.655H341.463L341.302 126.435C341.136 129.589 340.389 132.04 339.061 133.788ZM367.054 136H364.344V122.392H357.049V136H354.324V120.15H367.054V136ZM384.793 128.251C384.793 130.663 384.241 132.606 383.138 134.081C382.034 135.556 380.54 136.293 378.655 136.293C376.731 136.293 375.218 135.683 374.114 134.462V142.094H371.404V120.15H373.88L374.012 121.908C375.115 120.541 376.648 119.857 378.611 119.857C380.516 119.857 382.02 120.575 383.123 122.011C384.236 123.446 384.793 125.443 384.793 128.002V128.251ZM382.083 127.943C382.083 126.156 381.702 124.745 380.94 123.71C380.179 122.675 379.134 122.157 377.806 122.157C376.165 122.157 374.935 122.885 374.114 124.34V131.913C374.925 133.358 376.165 134.081 377.835 134.081C379.134 134.081 380.164 133.568 380.926 132.543C381.697 131.508 382.083 129.975 382.083 127.943ZM398.504 120.15H401.214V136H398.504V124.442L391.194 136H388.484V120.15H391.194V131.723L398.504 120.15ZM417.679 120.15V136H414.954V129.833H410.867L407.132 136H404.202L408.187 129.423C407.171 129.052 406.39 128.48 405.843 127.709C405.306 126.928 405.037 126.02 405.037 124.984C405.037 123.539 405.579 122.377 406.663 121.498C407.747 120.609 409.197 120.16 411.014 120.15H417.679ZM407.762 125.014C407.762 125.785 408.025 126.41 408.553 126.889C409.08 127.357 409.778 127.597 410.647 127.606H414.954V122.348H411.058C410.052 122.348 409.251 122.597 408.655 123.095C408.06 123.583 407.762 124.223 407.762 125.014ZM433.807 122.348H428.489V136H425.779V122.348H420.564V120.15H433.807V122.348ZM446.697 120.15H449.407V136H446.697V124.442L439.388 136H436.678V120.15H439.388V131.723L446.697 120.15ZM464.012 120.15H466.722V136H464.012V124.442L456.702 136H453.992V120.15H456.702V131.723L464.012 120.15ZM464.744 114.379C464.744 115.561 464.339 116.513 463.528 117.235C462.728 117.948 461.673 118.305 460.364 118.305C459.056 118.305 457.996 117.943 457.186 117.221C456.375 116.498 455.97 115.551 455.97 114.379H458.182C458.182 115.062 458.367 115.6 458.738 115.99C459.109 116.371 459.651 116.562 460.364 116.562C461.048 116.562 461.58 116.371 461.961 115.99C462.352 115.609 462.547 115.072 462.547 114.379H464.744ZM477.796 127.929C477.796 126.376 478.099 124.979 478.704 123.739C479.319 122.499 480.169 121.542 481.253 120.868C482.347 120.194 483.592 119.857 484.988 119.857C487.146 119.857 488.89 120.604 490.218 122.099C491.556 123.593 492.225 125.58 492.225 128.061V128.251C492.225 129.794 491.927 131.181 491.331 132.411C490.745 133.632 489.9 134.584 488.797 135.268C487.703 135.951 486.443 136.293 485.018 136.293C482.869 136.293 481.126 135.546 479.788 134.052C478.46 132.558 477.796 130.58 477.796 128.119V127.929ZM480.521 128.251C480.521 130.009 480.926 131.42 481.736 132.484C482.557 133.549 483.65 134.081 485.018 134.081C486.395 134.081 487.488 133.544 488.299 132.47C489.109 131.386 489.515 129.872 489.515 127.929C489.515 126.19 489.1 124.784 488.27 123.71C487.449 122.626 486.355 122.084 484.988 122.084C483.65 122.084 482.571 122.616 481.751 123.681C480.931 124.745 480.521 126.269 480.521 128.251ZM500.618 125.937L504.134 120.15H507.298L502.112 127.987L507.459 136H504.324L500.662 130.067L497 136H493.851L499.197 127.987L494.012 120.15H497.146L500.618 125.937ZM523.572 128.251C523.572 130.663 523.021 132.606 521.917 134.081C520.813 135.556 519.319 136.293 517.435 136.293C515.511 136.293 513.997 135.683 512.894 134.462V142.094H510.184V120.15H512.659L512.791 121.908C513.895 120.541 515.428 119.857 517.391 119.857C519.295 119.857 520.799 120.575 521.902 122.011C523.016 123.446 523.572 125.443 523.572 128.002V128.251ZM520.862 127.943C520.862 126.156 520.481 124.745 519.72 123.71C518.958 122.675 517.913 122.157 516.585 122.157C514.944 122.157 513.714 122.885 512.894 124.34V131.913C513.704 133.358 514.944 134.081 516.614 134.081C517.913 134.081 518.943 133.568 519.705 132.543C520.477 131.508 520.862 129.975 520.862 127.943ZM536.814 136C536.658 135.688 536.531 135.131 536.434 134.33C535.174 135.639 533.67 136.293 531.922 136.293C530.359 136.293 529.075 135.854 528.069 134.975C527.073 134.086 526.575 132.963 526.575 131.605C526.575 129.955 527.2 128.676 528.45 127.768C529.71 126.85 531.478 126.391 533.753 126.391H536.39V125.146C536.39 124.198 536.106 123.446 535.54 122.89C534.974 122.323 534.139 122.04 533.035 122.04C532.068 122.04 531.258 122.284 530.604 122.772C529.949 123.261 529.622 123.852 529.622 124.545H526.897C526.897 123.754 527.176 122.992 527.732 122.26C528.299 121.518 529.061 120.932 530.018 120.502C530.984 120.072 532.044 119.857 533.196 119.857C535.022 119.857 536.453 120.316 537.488 121.234C538.523 122.143 539.061 123.397 539.1 124.999V132.294C539.1 133.749 539.285 134.906 539.656 135.766V136H536.814ZM532.317 133.935C533.167 133.935 533.973 133.715 534.734 133.275C535.496 132.836 536.048 132.265 536.39 131.562V128.31H534.266C530.945 128.31 529.285 129.281 529.285 131.225C529.285 132.074 529.568 132.738 530.135 133.217C530.701 133.695 531.429 133.935 532.317 133.935ZM556.297 136H553.587V129.232H546.307V136H543.582V120.15H546.307V127.021H553.587V120.15H556.297V136ZM563.621 125.614H567.737C569.534 125.634 570.955 126.103 572 127.021C573.045 127.938 573.567 129.184 573.567 130.756C573.567 132.338 573.03 133.607 571.956 134.564C570.882 135.521 569.437 136 567.62 136H560.911V120.15H563.621V125.614ZM579.222 136H576.497V120.15H579.222V136ZM563.621 127.826V133.788H567.649C568.665 133.788 569.451 133.529 570.008 133.012C570.564 132.484 570.843 131.767 570.843 130.858C570.843 129.979 570.569 129.262 570.022 128.705C569.485 128.139 568.729 127.846 567.752 127.826H563.621Z" fill="#FEFBFB"/>
<path d="M194.277 83.9668V101H184.316V52.6562H203.176C206.806 52.6562 209.993 53.3203 212.738 54.6484C215.505 55.9766 217.63 57.8691 219.113 60.3262C220.596 62.7611 221.338 65.5391 221.338 68.6602C221.338 73.3971 219.711 77.138 216.457 79.8828C213.225 82.6055 208.743 83.9668 203.01 83.9668H194.277ZM194.277 75.8984H203.176C205.81 75.8984 207.813 75.2786 209.186 74.0391C210.58 72.7995 211.277 71.0286 211.277 68.7266C211.277 66.3581 210.58 64.4434 209.186 62.9824C207.791 61.5215 205.865 60.7689 203.408 60.7246H194.277V75.8984ZM241.525 87.4199L248.166 65.0742H258.459L244.016 106.578L243.219 108.471C241.072 113.163 237.53 115.51 232.594 115.51C231.199 115.51 229.783 115.299 228.344 114.879V107.607L229.805 107.641C231.62 107.641 232.97 107.364 233.855 106.811C234.763 106.257 235.471 105.339 235.98 104.055L237.109 101.1L224.525 65.0742H234.852L241.525 87.4199ZM276.721 93.9277C278.492 93.9277 279.93 93.4408 281.037 92.4668C282.144 91.4928 282.719 90.1979 282.764 88.582H291.762C291.74 91.0169 291.076 93.2526 289.77 95.2891C288.464 97.3034 286.671 98.875 284.391 100.004C282.133 101.111 279.632 101.664 276.887 101.664C271.751 101.664 267.701 100.037 264.734 96.7832C261.768 93.5072 260.285 88.9915 260.285 83.2363V82.6055C260.285 77.0716 261.757 72.6556 264.701 69.3574C267.645 66.0592 271.685 64.4102 276.82 64.4102C281.314 64.4102 284.911 65.694 287.611 68.2617C290.334 70.8073 291.717 74.2051 291.762 78.4551H282.764C282.719 76.5957 282.144 75.0905 281.037 73.9395C279.93 72.7663 278.469 72.1797 276.654 72.1797C274.419 72.1797 272.725 72.9987 271.574 74.6367C270.445 76.2526 269.881 78.8867 269.881 82.5391V83.5352C269.881 87.2318 270.445 89.888 271.574 91.5039C272.703 93.1198 274.419 93.9277 276.721 93.9277ZM312.182 93.9277C313.952 93.9277 315.391 93.4408 316.498 92.4668C317.605 91.4928 318.18 90.1979 318.225 88.582H327.223C327.201 91.0169 326.536 93.2526 325.23 95.2891C323.924 97.3034 322.132 98.875 319.852 100.004C317.594 101.111 315.092 101.664 312.348 101.664C307.212 101.664 303.161 100.037 300.195 96.7832C297.229 93.5072 295.746 88.9915 295.746 83.2363V82.6055C295.746 77.0716 297.218 72.6556 300.162 69.3574C303.106 66.0592 307.146 64.4102 312.281 64.4102C316.775 64.4102 320.372 65.694 323.072 68.2617C325.795 70.8073 327.178 74.2051 327.223 78.4551H318.225C318.18 76.5957 317.605 75.0905 316.498 73.9395C315.391 72.7663 313.93 72.1797 312.115 72.1797C309.88 72.1797 308.186 72.9987 307.035 74.6367C305.906 76.2526 305.342 78.8867 305.342 82.5391V83.5352C305.342 87.2318 305.906 89.888 307.035 91.5039C308.164 93.1198 309.88 93.9277 312.182 93.9277ZM346.779 87.752H342.928V101H333.332V65.0742H342.928V78.5879H346.348L354.184 65.0742H366.303L354.549 82.1738L367.398 101H354.615L346.779 87.752ZM392.666 65.0742H402.262V101H392.666V78.8203L380.646 101H371.018V65.0742H380.646V87.2207L392.666 65.0742ZM431.248 65.0742H440.844V101H431.248V78.8203L419.229 101H409.6V65.0742H419.229V87.2207L431.248 65.0742ZM436.893 50.498C436.893 53.4421 435.83 55.8216 433.705 57.6367C431.602 59.4518 428.835 60.3594 425.404 60.3594C421.973 60.3594 419.195 59.4629 417.07 57.6699C414.967 55.877 413.916 53.4863 413.916 50.498H420.723C420.723 51.8926 421.132 52.9772 421.951 53.752C422.792 54.5046 423.943 54.8809 425.404 54.8809C426.843 54.8809 427.972 54.5046 428.791 53.752C429.61 52.9772 430.02 51.8926 430.02 50.498H436.893ZM465.746 101V52.6562H482.68C488.546 52.6562 492.995 53.7852 496.027 56.043C499.06 58.2786 500.576 61.5658 500.576 65.9043C500.576 68.2728 499.967 70.3646 498.75 72.1797C497.533 73.9727 495.839 75.2897 493.67 76.1309C496.149 76.7507 498.097 78.0013 499.514 79.8828C500.952 81.7643 501.672 84.0664 501.672 86.7891C501.672 91.4375 500.189 94.957 497.223 97.3477C494.257 99.7383 490.029 100.956 484.539 101H465.746ZM475.707 79.9492V92.998H484.24C486.587 92.998 488.413 92.4447 489.719 91.3379C491.047 90.209 491.711 88.6595 491.711 86.6895C491.711 82.2624 489.42 80.0156 484.838 79.9492H475.707ZM475.707 72.9102H483.078C488.103 72.8216 490.615 70.8184 490.615 66.9004C490.615 64.709 489.973 63.1374 488.689 62.1855C487.428 61.2116 485.424 60.7246 482.68 60.7246H475.707V72.9102ZM530.193 65.0742H539.789V101H530.193V78.8203L518.174 101H508.545V65.0742H518.174V87.2207L530.193 65.0742ZM576.943 72.7773H565.422V101H555.793V72.7773H544.471V65.0742H576.943V72.7773ZM611.74 65.0742V101H602.178V88.582H596.102L589.195 101H579.467L587.303 86.9551C585.156 85.959 583.495 84.6087 582.322 82.9043C581.171 81.1999 580.596 79.263 580.596 77.0938C580.596 73.6185 581.935 70.7741 584.613 68.5605C587.314 66.3249 590.922 65.1628 595.438 65.0742H611.74ZM595.604 81.875H602.178V72.7773H595.936C594.231 72.7773 592.848 73.2311 591.785 74.1387C590.723 75.0241 590.191 76.1087 590.191 77.3926C590.191 78.6764 590.701 79.7389 591.719 80.5801C592.737 81.4212 594.032 81.8529 595.604 81.875ZM638.701 75.666C638.701 74.4043 638.281 73.4303 637.439 72.7441C636.62 72.0358 635.447 71.6816 633.92 71.6816C632.348 71.6816 631.064 72.0137 630.068 72.6777C629.094 73.3197 628.607 74.2383 628.607 75.4336H619.012C619.012 72.1797 620.362 69.5345 623.062 67.498C625.763 65.4616 629.216 64.4434 633.422 64.4434C638.048 64.4434 641.678 65.3509 644.312 67.166C646.969 68.9811 648.297 71.5599 648.297 74.9023C648.297 76.4961 647.81 77.9681 646.836 79.3184C645.884 80.6465 644.534 81.709 642.785 82.5059C646.88 83.9447 648.928 86.7227 648.928 90.8398C648.928 94.138 647.511 96.7721 644.678 98.7422C641.867 100.69 638.115 101.664 633.422 101.664C629.061 101.664 625.475 100.646 622.664 98.6094C619.853 96.5729 618.447 93.8281 618.447 90.375H628.043C628.043 91.5924 628.585 92.5775 629.67 93.3301C630.755 94.0827 632.171 94.459 633.92 94.459C635.624 94.459 636.952 94.0605 637.904 93.2637C638.856 92.4668 639.332 91.4264 639.332 90.1426C639.332 88.571 638.878 87.4531 637.971 86.7891C637.063 86.1029 635.702 85.7598 633.887 85.7598H628.674V79.5176H634.219C637.207 79.429 638.701 78.1452 638.701 75.666ZM665.031 75.5996H671.904C675.003 75.5996 677.726 76.1198 680.072 77.1602C682.419 78.2005 684.212 79.6947 685.451 81.6426C686.713 83.5684 687.344 85.8151 687.344 88.3828C687.344 92.168 685.938 95.2227 683.127 97.5469C680.338 99.849 676.531 101 671.705 101H655.402V65.0742H665.031V75.5996ZM665.031 83.3027V93.3301H671.838C673.742 93.3301 675.202 92.8874 676.221 92.002C677.239 91.1165 677.748 89.9102 677.748 88.3828C677.748 86.8333 677.25 85.6048 676.254 84.6973C675.258 83.7676 673.786 83.3027 671.838 83.3027H665.031Z" fill="#FEFBFB"/>
<defs>
<radialGradient id="paint0_radial" cx="0" cy="0" r="1" gradientUnits="userSpaceOnUse" gradientTransform="translate(91.1997 89.0975) rotate(90) scale(30.0831 39.1046)">
<stop stop-color="#E0E0E0"/>
<stop offset="1" stop-color="#888787"/>
</radialGradient>
</defs>
</svg>
